<svg width="10" height="10" viewBox="0 0 10 10" fill="none" xmlns="http://www.w3.org/2000/svg">
<g opacity="0.4">
<path d="M7.43249 0.237556L7.91395 0.718854C8.07221 0.885641 8.15137 1.08044 8.15137 1.3028C8.15137 1.52975 8.07221 1.72223 7.91395 1.88056L4.79444 4.99999L7.91386 8.11939C8.07212 8.2777 8.15128 8.47023 8.15128 8.69709C8.15128 8.91956 8.07212 9.11431 7.91386 9.28112L7.4324 9.7561C7.26989 9.91873 7.07513 10 6.84832 10C6.61729 10 6.42474 9.91864 6.27072 9.75613L2.09229 5.57771C1.92975 5.4236 1.84841 5.23114 1.84841 5.00001C1.84841 4.77322 1.92973 4.57849 2.09229 4.41602L6.27072 0.237578C6.42908 0.0792446 6.6216 2.19345e-05 6.84832 2.19345e-05C7.07091 -9.53674e-07 7.26555 0.0792217 7.43249 0.237556Z" fill="#0EBED9"/>
</g>
</svg>
