<svg width="10" height="10" viewBox="0 0 10 10" fill="none" xmlns="http://www.w3.org/2000/svg">
<g opacity="0.4">
<path d="M2.56751 0.237556L2.08605 0.718854C1.92779 0.885641 1.84863 1.08044 1.84863 1.3028C1.84863 1.52975 1.92779 1.72223 2.08605 1.88056L5.20556 4.99999L2.08614 8.11939C1.92788 8.2777 1.84872 8.47023 1.84872 8.69709C1.84872 8.91956 1.92788 9.11431 2.08614 9.28112L2.5676 9.7561C2.73011 9.91873 2.92487 10 3.15168 10C3.38271 10 3.57526 9.91864 3.72928 9.75613L7.90771 5.57771C8.07025 5.4236 8.15159 5.23114 8.15159 5.00001C8.15159 4.77322 8.07027 4.57849 7.90771 4.41602L3.72928 0.237578C3.57092 0.0792446 3.3784 2.19345e-05 3.15168 2.19345e-05C2.92909 -9.53674e-07 2.73445 0.0792217 2.56751 0.237556Z" fill="#0EBED9"/>
</g>
</svg>
