<svg width="11" height="11" viewBox="0 0 11 11" fill="none" xmlns="http://www.w3.org/2000/svg">
<g clip-path="url(#clip0_301_60)">
<path d="M1.05603 3.84276C1.19518 3.94096 1.61462 4.23258 2.31438 4.71749C3.01417 5.20241 3.55025 5.57578 3.92265 5.83763C3.96357 5.86633 4.05049 5.92872 4.18347 6.02489C4.31647 6.12113 4.42698 6.19889 4.51492 6.25821C4.60292 6.31751 4.7093 6.38403 4.83417 6.45767C4.959 6.53124 5.07667 6.58658 5.18716 6.62322C5.29767 6.66016 5.39997 6.67845 5.49407 6.67845H5.50644C5.60054 6.67845 5.70288 6.66013 5.81339 6.62322C5.92384 6.58658 6.04162 6.53118 6.16634 6.45767C6.29112 6.38394 6.39751 6.31749 6.48551 6.25821C6.57351 6.19889 6.68393 6.12113 6.81697 6.02489C6.94993 5.92864 7.03696 5.86633 7.07788 5.83763C7.4543 5.57578 8.41198 4.91076 9.95061 3.84264C10.2493 3.63402 10.4989 3.3823 10.6994 3.08764C10.9 2.79311 11.0002 2.48413 11.0002 2.16088C11.0002 1.89075 10.903 1.65952 10.7086 1.4672C10.5142 1.27484 10.284 1.17871 10.0181 1.17871H0.982346C0.667263 1.17871 0.424785 1.28509 0.254956 1.49786C0.085148 1.71067 0.000244141 1.97666 0.000244141 2.29583C0.000244141 2.55364 0.112819 2.83301 0.33786 3.13378C0.56288 3.43456 0.802348 3.67091 1.05603 3.84276Z" fill="#0EBED9"/>
<path d="M10.3863 4.49933C9.04418 5.40773 8.02508 6.1137 7.32949 6.61711C7.09624 6.78891 6.90702 6.92303 6.7617 7.01914C6.61638 7.11531 6.42312 7.21352 6.18163 7.31373C5.94023 7.41409 5.71525 7.46412 5.50651 7.46412H5.49408C5.28538 7.46412 5.06027 7.41409 4.81887 7.31373C4.57747 7.21352 4.38408 7.11531 4.2388 7.01914C4.09357 6.92303 3.90428 6.78891 3.67105 6.61711C3.11856 6.212 2.10166 5.50598 0.620283 4.49933C0.386965 4.34392 0.180307 4.1658 0.000244141 3.96531V8.83905C0.000244141 9.10931 0.0963707 9.34041 0.288731 9.53275C0.481049 9.72516 0.712303 9.82133 0.982408 9.82133H10.0181C10.2882 9.82133 10.5194 9.72516 10.7117 9.53275C10.9042 9.34035 11.0002 9.10933 11.0002 8.83905V3.96531C10.8242 4.16165 10.6197 4.33977 10.3863 4.49933Z" fill="#0EBED9"/>
</g>
<defs>
<clipPath id="clip0_301_60">
<rect width="11" height="11" fill="white" transform="translate(0.000244141)"/>
</clipPath>
</defs>
</svg>
