<svg width="12" height="12" viewBox="0 0 12 12" fill="none" xmlns="http://www.w3.org/2000/svg">
<path d="M6.00171 0C8.39808 0 10.3477 1.94958 10.3477 4.34592C10.3477 7.31986 6.45846 11.6858 6.29287 11.8702C6.13734 12.0434 5.8658 12.0431 5.71055 11.8702C5.54496 11.6858 1.65576 7.31986 1.65576 4.34592C1.65581 1.94958 3.60537 0 6.00171 0ZM6.00171 6.53248C7.20738 6.53248 8.18824 5.55159 8.18824 4.34592C8.18824 3.14025 7.20736 2.15939 6.00171 2.15939C4.79606 2.15939 3.8152 3.14027 3.8152 4.34594C3.8152 5.55162 4.79606 6.53248 6.00171 6.53248Z" fill="#0EBED9"/>
</svg>
