<svg width="11" height="11" viewBox="0 0 11 11" fill="none" xmlns="http://www.w3.org/2000/svg">
<g clip-path="url(#clip0_301_58)">
<path d="M10.3248 7.76875C10.2966 7.74641 8.25024 6.27138 7.68856 6.37725C7.42043 6.42469 7.26712 6.60756 6.95946 6.97366C6.90996 7.03278 6.79103 7.17441 6.69856 7.27513C6.50413 7.21171 6.31447 7.13451 6.13103 7.04413C5.18417 6.58316 4.41915 5.81813 3.95818 4.87128C3.86773 4.68786 3.79053 4.4982 3.72718 4.30375C3.82824 4.21094 3.96987 4.092 4.03037 4.04112C4.39474 3.73519 4.57796 3.58187 4.6254 3.31306C4.72268 2.75619 3.24868 0.69575 3.23321 0.677188C3.16634 0.581649 3.07906 0.502172 2.97769 0.444504C2.87633 0.386837 2.76342 0.352422 2.64712 0.34375C2.04968 0.34375 0.343994 2.55647 0.343994 2.92909C0.343994 2.95075 0.375275 5.15212 3.08987 7.91347C5.84846 10.625 8.04949 10.6562 8.07115 10.6562C8.44412 10.6562 10.6565 8.95056 10.6565 8.35312C10.6479 8.23724 10.6137 8.1247 10.5563 8.02364C10.499 7.92258 10.4199 7.83552 10.3248 7.76875Z" fill="#0EBED9"/>
</g>
<defs>
<clipPath id="clip0_301_58">
<rect width="11" height="11" fill="white" transform="translate(0.000244141)"/>
</clipPath>
</defs>
</svg>
