<svg width="54" height="54" viewBox="0 0 54 54" fill="none" xmlns="http://www.w3.org/2000/svg">
<g clip-path="url(#clip0_301_9045)">
<path d="M23.6257 7.83918C24.247 7.83918 24.7507 7.33546 24.7507 6.71415C24.7507 6.09283 24.247 5.58911 23.6257 5.58911C10.5841 5.60398 0.0155328 16.1726 0.000661727 29.2141V35.9641C-0.01885 42.8185 5.52184 48.391 12.3762 48.4105C19.2306 48.43 24.803 42.8893 24.8225 36.035C24.842 29.1806 19.3013 23.6081 12.447 23.5886C8.39977 23.5771 4.601 25.5397 2.26866 28.8474C2.47696 17.1965 11.9727 7.85574 23.6257 7.83918Z" fill="#0EBED9"/>
<path d="M41.6256 23.5891C37.6015 23.5923 33.8309 25.554 31.5186 28.8474C31.727 17.1964 41.2228 7.85564 52.8756 7.83918C53.4969 7.83918 54.0006 7.33546 54.0006 6.71415C54.0006 6.09283 53.4969 5.58911 52.8756 5.58911C39.8341 5.60398 29.2655 16.1726 29.2506 29.2141V35.9641C29.2506 42.7986 34.7911 48.3391 41.6256 48.3391C48.46 48.3391 54.0005 42.7986 54.0005 35.9641C54.0005 29.1296 48.4601 23.5891 41.6256 23.5891Z" fill="#0EBED9"/>
<path d="M12.3756 48.3393C5.54097 48.3393 0.000488281 42.7988 0.000488281 35.9643C0.000488281 29.1298 5.54097 23.5894 12.3755 23.5894C19.2099 23.5894 24.7504 29.1298 24.7504 35.9643C24.7419 42.7952 19.2065 48.3306 12.3756 48.3393ZM12.3756 25.8393C6.78371 25.8393 2.25056 30.3725 2.25056 35.9643C2.25056 41.5562 6.78371 46.0893 12.3756 46.0893C17.9674 46.0893 22.5006 41.5562 22.5006 35.9643C22.5006 30.3725 17.9674 25.8393 12.3756 25.8393Z" fill="white"/>
<path d="M1.12552 37.0894C0.504207 37.0894 0.000488281 36.5857 0.000488281 35.9644V29.2144C0.0140938 16.1723 10.5834 5.60296 23.6255 5.58936C24.2468 5.58936 24.7505 6.09307 24.7505 6.71439C24.7505 7.33571 24.2468 7.83943 23.6255 7.83943C11.8261 7.85303 2.26416 17.4149 2.25056 29.2144V35.9644C2.25056 36.5857 1.74684 37.0894 1.12552 37.0894Z" fill="white"/>
<path d="M41.6256 48.3393C34.7911 48.3393 29.2506 42.7988 29.2506 35.9643C29.2506 29.1298 34.7911 23.5894 41.6256 23.5894C48.4601 23.5894 54.0005 29.1298 54.0005 35.9643C53.9919 42.7952 48.4565 48.3306 41.6256 48.3393ZM41.6256 25.8393C36.0337 25.8393 31.5006 30.3725 31.5006 35.9643C31.5006 41.5562 36.0337 46.0893 41.6256 46.0893C47.2174 46.0893 51.7506 41.5562 51.7506 35.9643C51.7506 30.3725 47.2174 25.8393 41.6256 25.8393Z" fill="white"/>
<path d="M30.3755 37.0894C29.7542 37.0894 29.2505 36.5857 29.2505 35.9644V29.2144C29.2641 16.1723 39.8334 5.60296 52.8755 5.58936C53.4968 5.58936 54.0005 6.09307 54.0005 6.71439C54.0005 7.33571 53.4968 7.83943 52.8755 7.83943C41.0761 7.85303 31.5142 17.415 31.5005 29.2145V35.9645C31.5006 36.5857 30.9969 37.0894 30.3755 37.0894Z" fill="white"/>
</g>
<defs>
<clipPath id="clip0_301_9045">
<rect width="54" height="54" fill="white" transform="translate(0.000488281)"/>
</clipPath>
</defs>
</svg>
